<?xml version="1.0" encoding="utf-8"?>
<!-- Generator: Adobe Illustrator 22.1.0, SVG Export Plug-In . SVG Version: 6.00 Build 0)  -->
<svg version="1.1" id="Layer_1" xmlns="http://www.w3.org/2000/svg" xmlns:xlink="http://www.w3.org/1999/xlink" x="0px" y="0px"
	 viewBox="0 0 40 40" style="enable-background:new 0 0 40 40;" xml:space="preserve">
<style type="text/css">
	.st0{fill:#2EB89E;}
</style>
<title>ytp--search</title>
<path class="st0" d="M34.8,32l-9.3-9.3c3.6-5.2,2.4-12.4-2.8-16s-12.4-2.4-16,2.8s-2.4,12.4,2.8,16c4,2.8,9.2,2.8,13.2,0l9.3,9.3
	c0.4,0.4,0.9,0.6,1.4,0.6c1.1,0,2-0.9,2-2C35.4,32.9,35.2,32.4,34.8,32z M21.4,21.4c-2.9,2.9-7.7,2.9-10.6,0s-2.9-7.7,0-10.6
	c2.9-2.9,7.7-2.9,10.6,0C24.3,13.7,24.3,18.5,21.4,21.4C21.4,21.4,21.4,21.4,21.4,21.4z"/>
</svg>
